<svg xmlns="http://www.w3.org/2000/svg" width="120" height="111" fill="none"><mask id="a" fill="#fff"><path d="M42.616 9.53c2.035.985 3.706.089 5.66-.484 1.606-.469 4.294-.71 5.352.96.266.42.403 1.357-.121 1.599-.541.25-1.8-.436-2.406-.485-1.22-.097-3.27-.42-3.794.953-.275.702-.3 1.429.137 1.945.654.784 1.445.856 2.422.953 1.824.21 3.552.073 4.9 1.558 1.3 1.421 1.493 3.149 1.865 4.909.42 1.92.492 3.866.758 5.804.065.5.025 1.34.428 1.703 1.809 1.647 2.188-2.526 2.269-3.48.234-2.534.702-5.448 3.23-6.772.935-.485 2.13-.678 3.164-.55 1.186.146 2.672.848 3.802-.024 2.866-2.203-.573-4.617-2.737-5.15-.985-.234-2.51.573-3.318.202-1.986-.896 1.954-2.01 2.487-2.075 1.203-.145 2.51.032 3.665.363.847.243 1.598.703 2.422.961 1.251.396 2.325-.105 3.318-.84 1.598-1.186 1.057-3.568-.63-4.423a6.553 6.553 0 0 0-2.236-.638c-.695-.073-1.986.234-2.56-.226-.936-.783.194-1.453.93-1.688 1.162-.37 3.818.622 4.06-1.25C76.078.326 72.324-.134 70.2.027 65.374.4 62.524 3.83 60.538 7.9c-.194.388-.565 2.027-1.066 2.22l-.113.024c-.468-.032-1.308-1.598-1.574-1.929C55.8 5.76 53.167 3.491 50.06 2.668c-2.76-.719-7.233-.347-8.726 2.543-.856 1.68-.493 3.447 1.283 4.319Z"/><path fill-rule="evenodd" d="M113.707 23.667c.169-.066.31-.065.441.066.329.33.598.72.819 1.144a8.057 8.057 0 0 1 .447 1.07c.215.646.358 1.316.465 1.933.153.917.283 1.866.24 2.799a6.5 6.5 0 0 1-.143 1.107 5.487 5.487 0 0 1-.154.541l-.115.297c-.038.09-.078.18-.119.269l-.017.036c-.038.08-.078.16-.12.24l-.148.266-.041.07a6.78 6.78 0 0 1-.117.188l-.062.092a6.24 6.24 0 0 1-.083.122c-.03.042-.059.084-.09.125-.118.16-.243.317-.376.467l-.252.267c-.164.169-.339.337-.52.503l-.077.068a6.98 6.98 0 0 1-.203.178l-.086.072a8.137 8.137 0 0 1-.198.16l-.114.09a7.917 7.917 0 0 1-.187.139l-.103.074a6.782 6.782 0 0 1-.229.152l-.067.044a5.56 5.56 0 0 1-.306.18l-.281.147c-.136.069-.275.131-.414.195l-.376.167c-1.154.497-2.345.923-3.282 1.795l-.103.094a2.78 2.78 0 0 0-.301.358 1.787 1.787 0 0 0-.327 1.038c.004.86.6 1.725 1.248 2.422 1.131 1.207 2.237 2.401 3.162 3.755a17.197 17.197 0 0 1 .896 1.474c.186.343.364.695.532 1.054a23.109 23.109 0 0 1 .7 1.66c.816 2.15 1.363 4.46 1.709 6.65.07.437.13.87.184 1.294.291 2.305.362 4.402.293 5.935a31.214 31.214 0 0 1-.329 3.385 43.419 43.419 0 0 1-1.171 5.423 44.706 44.706 0 0 1-.449 1.497 47.508 47.508 0 0 1-1.088 3.038 38.243 38.243 0 0 1-1.985 4.23 43.462 43.462 0 0 1-2.582 4.158 43.747 43.747 0 0 1-3.031 3.844 74.773 74.773 0 0 1-1.891 2.058l-.273.285-.142.147-.412.42a49.175 49.175 0 0 1-.85.846l-.276.268a36.527 36.527 0 0 1-.609.579 110.498 110.498 0 0 1-.616.569c-.085.078-.17.155-.256.231l-.256.23c-.137.121-.274.242-.412.361l-.179.156c-.133.114-.266.228-.4.34-.086.074-.174.146-.262.22l-.354.292-.277.222c-.113.09-.226.181-.34.27l-.248.194c-.13.1-.26.2-.39.298l-.172.127c-.355.265-.71.524-1.07.772-3.963 2.742-8.498 5.231-13.025 6.924l-.015.006a80.711 80.711 0 0 1-8.216 2.548c-.804.204-1.612.396-2.421.576a79.755 79.755 0 0 1-8.487 1.418l-1.1.109c-.364.033-.73.063-1.096.091l-.18.011a59.21 59.21 0 0 1-.845.058c-.195.012-.39.022-.586.032l-.495.026-.5.019-.645.023-.35.009c-.245.005-.49.011-.736.014l-.354.003a96.88 96.88 0 0 1-.763.004l-.377-.002a45.807 45.807 0 0 1-.641-.008c-.181-.003-.362-.006-.542-.011l-.53-.014c-.19-.006-.378-.012-.568-.02-.168-.006-.335-.014-.503-.022l-.593-.029-.557-.034-.485-.031a58.695 58.695 0 0 1-.724-.055c-.114-.009-.227-.017-.34-.027-.242-.02-.485-.042-.727-.065l-.41-.04a79.523 79.523 0 0 1-.687-.075l-.408-.045c-.195-.022-.39-.047-.585-.072-.177-.022-.355-.043-.533-.067a63.703 63.703 0 0 1-3.744-.605 66.516 66.516 0 0 1-2.658-.562 63.211 63.211 0 0 1-6.069-1.733 57.956 57.956 0 0 1-5.805-2.328 53.214 53.214 0 0 1-2.384-1.182C15.131 98.124 6.723 88.992 3.802 76.048a40.193 40.193 0 0 1-.357-1.76 37.483 37.483 0 0 1-.33-2.228c1.776-1.217 3.797-1.986 5.83-2.753a26.355 26.355 0 0 1 6.516-1.505c2.604-.245 5.218.028 7.738.658 1.918.48 3.79 1.147 5.613 1.9 6.535 2.68 12.61 5.98 19.774 6.657 1.457.131 2.915.187 4.372.169 1.861-.029 3.713-.452 5.34-1.373.649-.367 1.401-.828 1.909-1.382.329-.367.818-.865.536-1.382-.329-.592-1.11-.094-1.505.15-3.197 1.937-7.108 1.035-10.418-.122-2.651-.921-5.059-2.426-7.362-4.006-1.871-1.278-3.695-2.623-5.585-3.882-2.238-1.495-4.598-2.822-7.099-3.856-1.88-.77-3.977-1.316-5.98-1.654-2.754-.47-5.556-.452-8.32-.067-4.493.617-8.885 2.682-11.55 6.39a32.783 32.783 0 0 1 .066-.928L3 64.94l.032-.318a32.744 32.744 0 0 1 .047-.437 31.793 31.793 0 0 1 .533-3.199l.057-.254c.01-.048.023-.096.034-.144.065-.275.133-.55.204-.821l.04-.148c.073-.27.149-.54.229-.808l.018-.063c.177-.588.37-1.168.58-1.74l.03-.083c.075-.201.154-.4.232-.599.044-.113.088-.226.134-.338.071-.175.145-.35.22-.523.052-.121.103-.243.157-.363.073-.164.148-.326.223-.489l.172-.366A31.413 31.413 0 0 1 6.6 52.96c.073-.137.147-.273.223-.41.083-.148.169-.294.254-.441l.195-.334c.096-.16.193-.319.291-.477l.215-.343c.091-.142.184-.283.278-.424a31.895 31.895 0 0 1 .511-.75c.092-.13.184-.261.278-.39a33.171 33.171 0 0 1 1.457-1.863 34.084 34.084 0 0 1 1.56-1.731 33.814 33.814 0 0 1 2.103-2.005 36.041 36.041 0 0 1 1.44-1.203 39.205 39.205 0 0 1 .774-.595c.131-.098.262-.198.395-.295.123-.09.248-.177.372-.265a37.767 37.767 0 0 1 .79-.547 41.348 41.348 0 0 1 1.26-.818c.12-.075.242-.148.363-.221.148-.09.295-.178.444-.266.13-.077.262-.151.393-.227.165-.094.33-.189.495-.28.114-.064.23-.126.344-.188.156-.085.313-.17.47-.252.166-.087.334-.171.5-.256.13-.066.26-.133.39-.197.168-.083.338-.163.507-.244.128-.061.255-.123.383-.183.138-.064.277-.126.415-.189.171-.077.342-.156.515-.231.122-.053.246-.105.369-.157.185-.08.372-.157.558-.234.113-.046.226-.09.34-.135.192-.077.384-.155.578-.229.123-.047.247-.091.37-.137.192-.072.383-.143.576-.212.141-.05.284-.097.426-.146.172-.06.343-.12.516-.177.143-.047.287-.092.43-.138.176-.056.352-.113.528-.167l.399-.118c.207-.061.415-.123.625-.182l.182-.049c.25-.069.5-.137.75-.202.121-.031.242-.06.364-.09a44.977 44.977 0 0 1 1.66-.383l.295-.058c.235-.048.47-.096.708-.14.097-.018.195-.033.293-.05.578-.105 1.16-.201 1.745-.284.11-.016.22-.028.33-.043a47.629 47.629 0 0 1 3.857-.36 48.637 48.637 0 0 1 5.075-.001c3.664.196 7.295.832 10.793 1.985l.144.046c2.867.962 5.585 2.258 8.18 3.771 2.02 1.178 3.964 2.487 5.848 3.873a150.249 150.249 0 0 1 4.562 3.512c1.924 1.528 3.835 3.071 5.792 4.555.59.448 1.184.891 1.785 1.326.768.557 1.546 1.1 2.336 1.626.526.35 1.058.692 1.596 1.024a48.055 48.055 0 0 0 2.462 1.421c.323.174.642.34.958.497.792.393 1.565.722 2.347.939.469.13.94.218 1.422.256a6.526 6.526 0 0 0 2.137-.187c.297-.075.601-.17.912-.292a8.408 8.408 0 0 0 2.288-1.354l.288-.253a8.83 8.83 0 0 0 .388-.386c.87-.928 1.49-2.042 1.891-3.24a11.2 11.2 0 0 0 .534-2.654 12.265 12.265 0 0 0 .026-1.619c-.038-.77-.141-1.56-.301-2.312-.188-.818-.554-2.2-1.175-2.793-.411-.4-.909-.566-1.442-.593l-.161-.004c-.054 0-.108.002-.162.004-1.091.05-2.284.582-3.171.847-.684.204-1.368.436-2.068.566a6.195 6.195 0 0 1-.706.092c-.29.023-.584.032-.878.03-2.842-.032-5.777-1.262-7.762-3.264a8.091 8.091 0 0 1-.532-.585l-.06-.07-.098-.125-.062-.08-.09-.122-.06-.082c-.026-.036-.05-.074-.076-.111-.022-.033-.045-.065-.066-.098l-.065-.102a5.973 5.973 0 0 1-.08-.132l-.045-.076a5.215 5.215 0 0 1-.08-.144l-.048-.096c-.023-.045-.046-.09-.067-.136l-.036-.083a3.823 3.823 0 0 1-.065-.155c-.01-.025-.017-.05-.026-.075-.017-.048-.034-.095-.049-.142-.01-.032-.018-.064-.026-.096a2.62 2.62 0 0 1-.067-.35 1.87 1.87 0 0 1 .014-.487c.01-.055.025-.106.041-.153a.771.771 0 0 1 .253-.382c.137-.114.31-.18.504-.214.066-.012.134-.02.204-.026.632-.047 1.409.14 1.885.05a6.924 6.924 0 0 0 .82-.212 6.633 6.633 0 0 0 1.276-.568c1.15-.649 2.22-1.42 3.409-1.97a7.763 7.763 0 0 1 1.236-.465 7.71 7.71 0 0 1 1.655-.285 8.38 8.38 0 0 1 .831-.01c.692.026 1.38.135 2.056.308a11.384 11.384 0 0 1 1.198.38c.262.099.521.206.777.321.178.076.356.16.535.254.458.234.917.718 1.43.825l.008.002a.64.64 0 0 0 .325-.002.386.386 0 0 0 .148-.083.474.474 0 0 0 .102-.134c.069-.13.101-.3.12-.477.014-.142.02-.288.03-.422l.003-.06c.012-.201.021-.408.031-.617a18.28 18.28 0 0 1 .057-.818 6.512 6.512 0 0 1 .079-.526l.065-.274a6.646 6.646 0 0 1 2.09-3.28 5.211 5.211 0 0 1 1.413-.85c.046-.018.092-.033.138-.05.066-.025.131-.051.197-.074l.159-.05.173-.053c.054-.016.108-.03.162-.044l.203-.053.102-.024c.082-.02.164-.037.246-.055l.126-.026.194-.038c.114-.022.227-.04.341-.06.192-.035.383-.07.575-.102l.477-.084c.302-.056.602-.116.899-.192a6.676 6.676 0 0 0 1.325-.474c.169-.087.342-.18.515-.277.335-.187.666-.394.951-.636a6.23 6.23 0 0 0 .602-.59 28.3 28.3 0 0 0 .545-.64c.117-.147.231-.323.361-.48.033-.038.067-.076.102-.112a1.12 1.12 0 0 1 .23-.184.814.814 0 0 1 .135-.062Zm-53.18 37.111c-.725-3.046-3.676-4.446-6.046-3.497-2.275.922-3.084 4.268-1.297 6.779 1.09 1.532 2.961 2.295 4.475 1.815.245-.085.47-.18.695-.292 1.608-.818 2.727-2.52 2.172-4.805Z" clip-rule="evenodd"/><path d="M83.327 86.372c-.216 1.382.17 3.037.433 4.24.235 1.1.658 2.154 1.062 3.207.433 1.11 1.016 1.767 1.627 2.726 3.422 5.444 9.195 8.491 15.476 8.933 5.096.357 13.493-.555 17.207-4.683 2.933-3.262-8.716-4.917-10.785-5.557-5.726-1.748-10.85-4.165-15.354-8.16-2.228-1.985-5.435-4.758-8.49-2.718-.696.46-1.044 1.184-1.176 2.012Zm-62.516 1.74c-1.947.874-3.893 3.318-5.002 4.268-4.523 3.874-10.522 5.463-14.95 9.261-2.37 2.041.724 3.479 2.548 4.09 8.311 2.802 17.986-1.532 20.563-10.135.526-1.759 1.279-5.952-.376-7.278-.865-.686-1.824-.64-2.783-.207Z"/></mask><path fill="#fff" d="M42.616 9.53c2.035.985 3.706.089 5.66-.484 1.606-.469 4.294-.71 5.352.96.266.42.403 1.357-.121 1.599-.541.25-1.8-.436-2.406-.485-1.22-.097-3.27-.42-3.794.953-.275.702-.3 1.429.137 1.945.654.784 1.445.856 2.422.953 1.824.21 3.552.073 4.9 1.558 1.3 1.421 1.493 3.149 1.865 4.909.42 1.92.492 3.866.758 5.804.065.5.025 1.34.428 1.703 1.809 1.647 2.188-2.526 2.269-3.48.234-2.534.702-5.448 3.23-6.772.935-.485 2.13-.678 3.164-.55 1.186.146 2.672.848 3.802-.024 2.866-2.203-.573-4.617-2.737-5.15-.985-.234-2.51.573-3.318.202-1.986-.896 1.954-2.01 2.487-2.075 1.203-.145 2.51.032 3.665.363.847.243 1.598.703 2.422.961 1.251.396 2.325-.105 3.318-.84 1.598-1.186 1.057-3.568-.63-4.423a6.553 6.553 0 0 0-2.236-.638c-.695-.073-1.986.234-2.56-.226-.936-.783.194-1.453.93-1.688 1.162-.37 3.818.622 4.06-1.25C76.078.326 72.324-.134 70.2.027 65.374.4 62.524 3.83 60.538 7.9c-.194.388-.565 2.027-1.066 2.22l-.113.024c-.468-.032-1.308-1.598-1.574-1.929C55.8 5.76 53.167 3.491 50.06 2.668c-2.76-.719-7.233-.347-8.726 2.543-.856 1.68-.493 3.447 1.283 4.319Z"/><path fill="#fff" fill-rule="evenodd" d="M113.707 23.667c.169-.066.31-.065.441.066.329.33.598.72.819 1.144a8.057 8.057 0 0 1 .447 1.07c.215.646.358 1.316.465 1.933.153.917.283 1.866.24 2.799a6.5 6.5 0 0 1-.143 1.107 5.487 5.487 0 0 1-.154.541l-.115.297c-.038.09-.078.18-.119.269l-.017.036c-.038.08-.078.16-.12.24l-.148.266-.041.07a6.78 6.78 0 0 1-.117.188l-.062.092a6.24 6.24 0 0 1-.083.122c-.03.042-.059.084-.09.125-.118.16-.243.317-.376.467l-.252.267c-.164.169-.339.337-.52.503l-.077.068a6.98 6.98 0 0 1-.203.178l-.086.072a8.137 8.137 0 0 1-.198.16l-.114.09a7.917 7.917 0 0 1-.187.139l-.103.074a6.782 6.782 0 0 1-.229.152l-.067.044a5.56 5.56 0 0 1-.306.18l-.281.147c-.136.069-.275.131-.414.195l-.376.167c-1.154.497-2.345.923-3.282 1.795l-.103.094a2.78 2.78 0 0 0-.301.358 1.787 1.787 0 0 0-.327 1.038c.004.86.6 1.725 1.248 2.422 1.131 1.207 2.237 2.401 3.162 3.755a17.197 17.197 0 0 1 .896 1.474c.186.343.364.695.532 1.054a23.109 23.109 0 0 1 .7 1.66c.816 2.15 1.363 4.46 1.709 6.65.07.437.13.87.184 1.294.291 2.305.362 4.402.293 5.935a31.214 31.214 0 0 1-.329 3.385 43.419 43.419 0 0 1-1.171 5.423 44.706 44.706 0 0 1-.449 1.497 47.508 47.508 0 0 1-1.088 3.038 38.243 38.243 0 0 1-1.985 4.23 43.462 43.462 0 0 1-2.582 4.158 43.747 43.747 0 0 1-3.031 3.844 74.773 74.773 0 0 1-1.891 2.058l-.273.285-.142.147-.412.42a49.175 49.175 0 0 1-.85.846l-.276.268a36.527 36.527 0 0 1-.609.579 110.498 110.498 0 0 1-.616.569c-.085.078-.17.155-.256.231l-.256.23c-.137.121-.274.242-.412.361l-.179.156c-.133.114-.266.228-.4.34-.086.074-.174.146-.262.22l-.354.292-.277.222c-.113.09-.226.181-.34.27l-.248.194c-.13.1-.26.2-.39.298l-.172.127c-.355.265-.71.524-1.07.772-3.963 2.742-8.498 5.231-13.025 6.924l-.015.006a80.711 80.711 0 0 1-8.216 2.548c-.804.204-1.612.396-2.421.576a79.755 79.755 0 0 1-8.487 1.418l-1.1.109c-.364.033-.73.063-1.096.091l-.18.011a59.21 59.21 0 0 1-.845.058c-.195.012-.39.022-.586.032l-.495.026-.5.019-.645.023-.35.009c-.245.005-.49.011-.736.014l-.354.003a96.88 96.88 0 0 1-.763.004l-.377-.002a45.807 45.807 0 0 1-.641-.008c-.181-.003-.362-.006-.542-.011l-.53-.014c-.19-.006-.378-.012-.568-.02-.168-.006-.335-.014-.503-.022l-.593-.029-.557-.034-.485-.031a58.695 58.695 0 0 1-.724-.055c-.114-.009-.227-.017-.34-.027-.242-.02-.485-.042-.727-.065l-.41-.04a79.523 79.523 0 0 1-.687-.075l-.408-.045c-.195-.022-.39-.047-.585-.072-.177-.022-.355-.043-.533-.067a63.703 63.703 0 0 1-3.744-.605 66.516 66.516 0 0 1-2.658-.562 63.211 63.211 0 0 1-6.069-1.733 57.956 57.956 0 0 1-5.805-2.328 53.214 53.214 0 0 1-2.384-1.182C15.131 98.124 6.723 88.992 3.802 76.048a40.193 40.193 0 0 1-.357-1.76 37.483 37.483 0 0 1-.33-2.228c1.776-1.217 3.797-1.986 5.83-2.753a26.355 26.355 0 0 1 6.516-1.505c2.604-.245 5.218.028 7.738.658 1.918.48 3.79 1.147 5.613 1.9 6.535 2.68 12.61 5.98 19.774 6.657 1.457.131 2.915.187 4.372.169 1.861-.029 3.713-.452 5.34-1.373.649-.367 1.401-.828 1.909-1.382.329-.367.818-.865.536-1.382-.329-.592-1.11-.094-1.505.15-3.197 1.937-7.108 1.035-10.418-.122-2.651-.921-5.059-2.426-7.362-4.006-1.871-1.278-3.695-2.623-5.585-3.882-2.238-1.495-4.598-2.822-7.099-3.856-1.88-.77-3.977-1.316-5.98-1.654-2.754-.47-5.556-.452-8.32-.067-4.493.617-8.885 2.682-11.55 6.39a32.783 32.783 0 0 1 .066-.928L3 64.94l.032-.318a32.744 32.744 0 0 1 .047-.437 31.793 31.793 0 0 1 .533-3.199l.057-.254c.01-.048.023-.096.034-.144.065-.275.133-.55.204-.821l.04-.148c.073-.27.149-.54.229-.808l.018-.063c.177-.588.37-1.168.58-1.74l.03-.083c.075-.201.154-.4.232-.599.044-.113.088-.226.134-.338.071-.175.145-.35.22-.523.052-.121.103-.243.157-.363.073-.164.148-.326.223-.489l.172-.366A31.413 31.413 0 0 1 6.6 52.96c.073-.137.147-.273.223-.41.083-.148.169-.294.254-.441l.195-.334c.096-.16.193-.319.291-.477l.215-.343c.091-.142.184-.283.278-.424a31.895 31.895 0 0 1 .511-.75c.092-.13.184-.261.278-.39a33.171 33.171 0 0 1 1.457-1.863 34.084 34.084 0 0 1 1.56-1.731 33.814 33.814 0 0 1 2.103-2.005 36.041 36.041 0 0 1 1.44-1.203 39.205 39.205 0 0 1 .774-.595c.131-.098.262-.198.395-.295.123-.09.248-.177.372-.265a37.767 37.767 0 0 1 .79-.547 41.348 41.348 0 0 1 1.26-.818c.12-.075.242-.148.363-.221.148-.09.295-.178.444-.266.13-.077.262-.151.393-.227.165-.094.33-.189.495-.28.114-.064.23-.126.344-.188.156-.085.313-.17.47-.252.166-.087.334-.171.5-.256.13-.066.26-.133.39-.197.168-.083.338-.163.507-.244.128-.061.255-.123.383-.183.138-.064.277-.126.415-.189.171-.077.342-.156.515-.231.122-.053.246-.105.369-.157.185-.08.372-.157.558-.234.113-.046.226-.09.34-.135.192-.077.384-.155.578-.229.123-.047.247-.091.37-.137.192-.072.383-.143.576-.212.141-.05.284-.097.426-.146.172-.06.343-.12.516-.177.143-.047.287-.092.43-.138.176-.056.352-.113.528-.167l.399-.118c.207-.061.415-.123.625-.182l.182-.049c.25-.069.5-.137.75-.202.121-.031.242-.06.364-.09a44.977 44.977 0 0 1 1.66-.383l.295-.058c.235-.048.47-.096.708-.14.097-.018.195-.033.293-.05.578-.105 1.16-.201 1.745-.284.11-.016.22-.028.33-.043a47.629 47.629 0 0 1 3.857-.36 48.637 48.637 0 0 1 5.075-.001c3.664.196 7.295.832 10.793 1.985l.144.046c2.867.962 5.585 2.258 8.18 3.771 2.02 1.178 3.964 2.487 5.848 3.873a150.249 150.249 0 0 1 4.562 3.512c1.924 1.528 3.835 3.071 5.792 4.555.59.448 1.184.891 1.785 1.326.768.557 1.546 1.1 2.336 1.626.526.35 1.058.692 1.596 1.024a48.055 48.055 0 0 0 2.462 1.421c.323.174.642.34.958.497.792.393 1.565.722 2.347.939.469.13.94.218 1.422.256a6.526 6.526 0 0 0 2.137-.187c.297-.075.601-.17.912-.292a8.408 8.408 0 0 0 2.288-1.354l.288-.253a8.83 8.83 0 0 0 .388-.386c.87-.928 1.49-2.042 1.891-3.24a11.2 11.2 0 0 0 .534-2.654 12.265 12.265 0 0 0 .026-1.619c-.038-.77-.141-1.56-.301-2.312-.188-.818-.554-2.2-1.175-2.793-.411-.4-.909-.566-1.442-.593l-.161-.004c-.054 0-.108.002-.162.004-1.091.05-2.284.582-3.171.847-.684.204-1.368.436-2.068.566a6.195 6.195 0 0 1-.706.092c-.29.023-.584.032-.878.03-2.842-.032-5.777-1.262-7.762-3.264a8.091 8.091 0 0 1-.532-.585l-.06-.07-.098-.125-.062-.08-.09-.122-.06-.082c-.026-.036-.05-.074-.076-.111-.022-.033-.045-.065-.066-.098l-.065-.102a5.973 5.973 0 0 1-.08-.132l-.045-.076a5.215 5.215 0 0 1-.08-.144l-.048-.096c-.023-.045-.046-.09-.067-.136l-.036-.083a3.823 3.823 0 0 1-.065-.155c-.01-.025-.017-.05-.026-.075-.017-.048-.034-.095-.049-.142-.01-.032-.018-.064-.026-.096a2.62 2.62 0 0 1-.067-.35 1.87 1.87 0 0 1 .014-.487c.01-.055.025-.106.041-.153a.771.771 0 0 1 .253-.382c.137-.114.31-.18.504-.214.066-.012.134-.02.204-.026.632-.047 1.409.14 1.885.05a6.924 6.924 0 0 0 .82-.212 6.633 6.633 0 0 0 1.276-.568c1.15-.649 2.22-1.42 3.409-1.97a7.763 7.763 0 0 1 1.236-.465 7.71 7.71 0 0 1 1.655-.285 8.38 8.38 0 0 1 .831-.01c.692.026 1.38.135 2.056.308a11.384 11.384 0 0 1 1.198.38c.262.099.521.206.777.321.178.076.356.16.535.254.458.234.917.718 1.43.825l.008.002a.64.64 0 0 0 .325-.002.386.386 0 0 0 .148-.083.474.474 0 0 0 .102-.134c.069-.13.101-.3.12-.477.014-.142.02-.288.03-.422l.003-.06c.012-.201.021-.408.031-.617a18.28 18.28 0 0 1 .057-.818 6.512 6.512 0 0 1 .079-.526l.065-.274a6.646 6.646 0 0 1 2.09-3.28 5.211 5.211 0 0 1 1.413-.85c.046-.018.092-.033.138-.05.066-.025.131-.051.197-.074l.159-.05.173-.053c.054-.016.108-.03.162-.044l.203-.053.102-.024c.082-.02.164-.037.246-.055l.126-.026.194-.038c.114-.022.227-.04.341-.06.192-.035.383-.07.575-.102l.477-.084c.302-.056.602-.116.899-.192a6.676 6.676 0 0 0 1.325-.474c.169-.087.342-.18.515-.277.335-.187.666-.394.951-.636a6.23 6.23 0 0 0 .602-.59 28.3 28.3 0 0 0 .545-.64c.117-.147.231-.323.361-.48.033-.038.067-.076.102-.112a1.12 1.12 0 0 1 .23-.184.814.814 0 0 1 .135-.062Zm-53.18 37.111c-.725-3.046-3.676-4.446-6.046-3.497-2.275.922-3.084 4.268-1.297 6.779 1.09 1.532 2.961 2.295 4.475 1.815.245-.085.47-.18.695-.292 1.608-.818 2.727-2.52 2.172-4.805Z" clip-rule="evenodd"/><path fill="#fff" d="M83.327 86.372c-.216 1.382.17 3.037.433 4.24.235 1.1.658 2.154 1.062 3.207.433 1.11 1.016 1.767 1.627 2.726 3.422 5.444 9.195 8.491 15.476 8.933 5.096.357 13.493-.555 17.207-4.683 2.933-3.262-8.716-4.917-10.785-5.557-5.726-1.748-10.85-4.165-15.354-8.16-2.228-1.985-5.435-4.758-8.49-2.718-.696.46-1.044 1.184-1.176 2.012Zm-62.516 1.74c-1.947.874-3.893 3.318-5.002 4.268-4.523 3.874-10.522 5.463-14.95 9.261-2.37 2.041.724 3.479 2.548 4.09 8.311 2.802 17.986-1.532 20.563-10.135.526-1.759 1.279-5.952-.376-7.278-.865-.686-1.824-.64-2.783-.207Z"/><path stroke="#fff" stroke-width="1.88" d="M42.616 9.53c2.035.985 3.706.089 5.66-.484 1.606-.469 4.294-.71 5.352.96.266.42.403 1.357-.121 1.599-.541.25-1.8-.436-2.406-.485-1.22-.097-3.27-.42-3.794.953-.275.702-.3 1.429.137 1.945.654.784 1.445.856 2.422.953 1.824.21 3.552.073 4.9 1.558 1.3 1.421 1.493 3.149 1.865 4.909.42 1.92.492 3.866.758 5.804.065.5.025 1.34.428 1.703 1.809 1.647 2.188-2.526 2.269-3.48.234-2.534.702-5.448 3.23-6.772.935-.485 2.13-.678 3.164-.55 1.186.146 2.672.848 3.802-.024 2.866-2.203-.573-4.617-2.737-5.15-.985-.234-2.51.573-3.318.202-1.986-.896 1.954-2.01 2.487-2.075 1.203-.145 2.51.032 3.665.363.847.243 1.598.703 2.422.961 1.251.396 2.325-.105 3.318-.84 1.598-1.186 1.057-3.568-.63-4.423a6.553 6.553 0 0 0-2.236-.638c-.695-.073-1.986.234-2.56-.226-.936-.783.194-1.453.93-1.688 1.162-.37 3.818.622 4.06-1.25C76.078.326 72.324-.134 70.2.027 65.374.4 62.524 3.83 60.538 7.9c-.194.388-.565 2.027-1.066 2.22l-.113.024c-.468-.032-1.308-1.598-1.574-1.929C55.8 5.76 53.167 3.491 50.06 2.668c-2.76-.719-7.233-.347-8.726 2.543-.856 1.68-.493 3.447 1.283 4.319Z" mask="url(#a)"/><path stroke="#fff" stroke-width="1.88" d="M113.707 23.667c.169-.066.31-.065.441.066.329.33.598.72.819 1.144a8.057 8.057 0 0 1 .447 1.07c.215.646.358 1.316.465 1.933.153.917.283 1.866.24 2.799a6.5 6.5 0 0 1-.143 1.107 5.487 5.487 0 0 1-.154.541l-.115.297c-.038.09-.078.18-.119.269l-.017.036c-.038.08-.078.16-.12.24l-.148.266-.041.07a6.78 6.78 0 0 1-.117.188l-.062.092a6.24 6.24 0 0 1-.083.122c-.03.042-.059.084-.09.125-.118.16-.243.317-.376.467l-.252.267c-.164.169-.339.337-.52.503l-.077.068a6.98 6.98 0 0 1-.203.178l-.086.072a8.137 8.137 0 0 1-.198.16l-.114.09a7.917 7.917 0 0 1-.187.139l-.103.074a6.782 6.782 0 0 1-.229.152l-.067.044a5.56 5.56 0 0 1-.306.18l-.281.147c-.136.069-.275.131-.414.195l-.376.167c-1.154.497-2.345.923-3.282 1.795l-.103.094a2.78 2.78 0 0 0-.301.358 1.787 1.787 0 0 0-.327 1.038c.004.86.6 1.725 1.248 2.422 1.131 1.207 2.237 2.401 3.162 3.755a17.197 17.197 0 0 1 .896 1.474c.186.343.364.695.532 1.054a23.109 23.109 0 0 1 .7 1.66c.816 2.15 1.363 4.46 1.709 6.65.07.437.13.87.184 1.294.291 2.305.362 4.402.293 5.935a31.214 31.214 0 0 1-.329 3.385 43.419 43.419 0 0 1-1.171 5.423 44.706 44.706 0 0 1-.449 1.497 47.508 47.508 0 0 1-1.088 3.038 38.243 38.243 0 0 1-1.985 4.23 43.462 43.462 0 0 1-2.582 4.158 43.747 43.747 0 0 1-3.031 3.844 74.773 74.773 0 0 1-1.891 2.058l-.273.285-.142.147-.412.42a49.175 49.175 0 0 1-.85.846l-.276.268a36.527 36.527 0 0 1-.609.579 110.498 110.498 0 0 1-.616.569c-.085.078-.17.155-.256.231l-.256.23c-.137.121-.274.242-.412.361l-.179.156c-.133.114-.266.228-.4.34-.086.074-.174.146-.262.22l-.354.292-.277.222c-.113.09-.226.181-.34.27l-.248.194c-.13.1-.26.2-.39.298l-.172.127c-.355.265-.71.524-1.07.772-3.963 2.742-8.498 5.231-13.025 6.924l-.015.006a80.711 80.711 0 0 1-8.216 2.548c-.804.204-1.612.396-2.421.576a79.755 79.755 0 0 1-8.487 1.418l-1.1.109c-.364.033-.73.063-1.096.091l-.18.011a59.21 59.21 0 0 1-.845.058c-.195.012-.39.022-.586.032l-.495.026-.5.019-.645.023-.35.009c-.245.005-.49.011-.736.014l-.354.003a96.88 96.88 0 0 1-.763.004l-.377-.002a45.807 45.807 0 0 1-.641-.008c-.181-.003-.362-.006-.542-.011l-.53-.014c-.19-.006-.378-.012-.568-.02-.168-.006-.335-.014-.503-.022l-.593-.029-.557-.034-.485-.031a58.695 58.695 0 0 1-.724-.055c-.114-.009-.227-.017-.34-.027-.242-.02-.485-.042-.727-.065l-.41-.04a79.523 79.523 0 0 1-.687-.075l-.408-.045c-.195-.022-.39-.047-.585-.072-.177-.022-.355-.043-.533-.067a63.703 63.703 0 0 1-3.744-.605 66.516 66.516 0 0 1-2.658-.562 63.211 63.211 0 0 1-6.069-1.733 57.956 57.956 0 0 1-5.805-2.328 53.214 53.214 0 0 1-2.384-1.182C15.131 98.124 6.723 88.992 3.802 76.048a40.193 40.193 0 0 1-.357-1.76 37.483 37.483 0 0 1-.33-2.228c1.776-1.217 3.797-1.986 5.83-2.753a26.355 26.355 0 0 1 6.516-1.505c2.604-.245 5.218.028 7.738.658 1.918.48 3.79 1.147 5.613 1.9 6.535 2.68 12.61 5.98 19.774 6.657 1.457.131 2.915.187 4.372.169 1.861-.029 3.713-.452 5.34-1.373.649-.367 1.401-.828 1.909-1.382.329-.367.818-.865.536-1.382-.329-.592-1.11-.094-1.505.15-3.197 1.937-7.108 1.035-10.418-.122-2.651-.921-5.059-2.426-7.362-4.006-1.871-1.278-3.695-2.623-5.585-3.882-2.238-1.495-4.598-2.822-7.099-3.856-1.88-.77-3.977-1.316-5.98-1.654-2.754-.47-5.556-.452-8.32-.067-4.493.617-8.885 2.682-11.55 6.39a32.783 32.783 0 0 1 .066-.928L3 64.94l.032-.318a32.744 32.744 0 0 1 .047-.437 31.793 31.793 0 0 1 .533-3.199l.057-.254c.01-.048.023-.096.034-.144.065-.275.133-.55.204-.821l.04-.148c.073-.27.149-.54.229-.808l.018-.063c.177-.588.37-1.168.58-1.74l.03-.083c.075-.201.154-.4.232-.599.044-.113.088-.226.134-.338.071-.175.145-.35.22-.523.052-.121.103-.243.157-.363.073-.164.148-.326.223-.489l.172-.366A31.413 31.413 0 0 1 6.6 52.96c.073-.137.147-.273.223-.41.083-.148.169-.294.254-.441l.195-.334c.096-.16.193-.319.291-.477l.215-.343c.091-.142.184-.283.278-.424a31.895 31.895 0 0 1 .511-.75c.092-.13.184-.261.278-.39a33.171 33.171 0 0 1 1.457-1.863 34.084 34.084 0 0 1 1.56-1.731 33.814 33.814 0 0 1 2.103-2.005 36.041 36.041 0 0 1 1.44-1.203 39.205 39.205 0 0 1 .774-.595c.131-.098.262-.198.395-.295.123-.09.248-.177.372-.265a37.767 37.767 0 0 1 .79-.547 41.348 41.348 0 0 1 1.26-.818c.12-.075.242-.148.363-.221.148-.09.295-.178.444-.266.13-.077.262-.151.393-.227.165-.094.33-.189.495-.28.114-.064.23-.126.344-.188.156-.085.313-.17.47-.252.166-.087.334-.171.5-.256.13-.066.26-.133.39-.197.168-.083.338-.163.507-.244.128-.061.255-.123.383-.183.138-.064.277-.126.415-.189.171-.077.342-.156.515-.231.122-.053.246-.105.369-.157.185-.08.372-.157.558-.234.113-.046.226-.09.34-.135.192-.077.384-.155.578-.229.123-.047.247-.091.37-.137.192-.072.383-.143.576-.212.141-.05.284-.097.426-.146.172-.06.343-.12.516-.177.143-.047.287-.092.43-.138.176-.056.352-.113.528-.167l.399-.118c.207-.061.415-.123.625-.182l.182-.049c.25-.069.5-.137.75-.202.121-.031.242-.06.364-.09a44.977 44.977 0 0 1 1.66-.383l.295-.058c.235-.048.47-.096.708-.14.097-.018.195-.033.293-.05.578-.105 1.16-.201 1.745-.284.11-.016.22-.028.33-.043a47.629 47.629 0 0 1 3.857-.36 48.637 48.637 0 0 1 5.075-.001c3.664.196 7.295.832 10.793 1.985l.144.046c2.867.962 5.585 2.258 8.18 3.771 2.02 1.178 3.964 2.487 5.848 3.873a150.249 150.249 0 0 1 4.562 3.512c1.924 1.528 3.835 3.071 5.792 4.555.59.448 1.184.891 1.785 1.326.768.557 1.546 1.1 2.336 1.626.526.35 1.058.692 1.596 1.024a48.055 48.055 0 0 0 2.462 1.421c.323.174.642.34.958.497.792.393 1.565.722 2.347.939.469.13.94.218 1.422.256a6.526 6.526 0 0 0 2.137-.187c.297-.075.601-.17.912-.292a8.408 8.408 0 0 0 2.288-1.354l.288-.253a8.83 8.83 0 0 0 .388-.386c.87-.928 1.49-2.042 1.891-3.24a11.2 11.2 0 0 0 .534-2.654 12.265 12.265 0 0 0 .026-1.619c-.038-.77-.141-1.56-.301-2.312-.188-.818-.554-2.2-1.175-2.793-.411-.4-.909-.566-1.442-.593l-.161-.004c-.054 0-.108.002-.162.004-1.091.05-2.284.582-3.171.847-.684.204-1.368.436-2.068.566a6.195 6.195 0 0 1-.706.092c-.29.023-.584.032-.878.03-2.842-.032-5.777-1.262-7.762-3.264a8.091 8.091 0 0 1-.532-.585l-.06-.07-.098-.125-.062-.08-.09-.122-.06-.082c-.026-.036-.05-.074-.076-.111-.022-.033-.045-.065-.066-.098l-.065-.102a5.973 5.973 0 0 1-.08-.132l-.045-.076a5.215 5.215 0 0 1-.08-.144l-.048-.096c-.023-.045-.046-.09-.067-.136l-.036-.083a3.823 3.823 0 0 1-.065-.155c-.01-.025-.017-.05-.026-.075-.017-.048-.034-.095-.049-.142-.01-.032-.018-.064-.026-.096a2.62 2.62 0 0 1-.067-.35 1.87 1.87 0 0 1 .014-.487c.01-.055.025-.106.041-.153a.771.771 0 0 1 .253-.382c.137-.114.31-.18.504-.214.066-.012.134-.02.204-.026.632-.047 1.409.14 1.885.05a6.924 6.924 0 0 0 .82-.212 6.633 6.633 0 0 0 1.276-.568c1.15-.649 2.22-1.42 3.409-1.97a7.763 7.763 0 0 1 1.236-.465 7.71 7.71 0 0 1 1.655-.285 8.38 8.38 0 0 1 .831-.01c.692.026 1.38.135 2.056.308a11.384 11.384 0 0 1 1.198.38c.262.099.521.206.777.321.178.076.356.16.535.254.458.234.917.718 1.43.825l.008.002a.64.64 0 0 0 .325-.002.386.386 0 0 0 .148-.083.474.474 0 0 0 .102-.134c.069-.13.101-.3.12-.477.014-.142.02-.288.03-.422l.003-.06c.012-.201.021-.408.031-.617a18.28 18.28 0 0 1 .057-.818 6.512 6.512 0 0 1 .079-.526l.065-.274a6.646 6.646 0 0 1 2.09-3.28 5.211 5.211 0 0 1 1.413-.85c.046-.018.092-.033.138-.05.066-.025.131-.051.197-.074l.159-.05.173-.053c.054-.016.108-.03.162-.044l.203-.053.102-.024c.082-.02.164-.037.246-.055l.126-.026.194-.038c.114-.022.227-.04.341-.06.192-.035.383-.07.575-.102l.477-.084c.302-.056.602-.116.899-.192a6.676 6.676 0 0 0 1.325-.474c.169-.087.342-.18.515-.277.335-.187.666-.394.951-.636a6.23 6.23 0 0 0 .602-.59 28.3 28.3 0 0 0 .545-.64c.117-.147.231-.323.361-.48.033-.038.067-.076.102-.112a1.12 1.12 0 0 1 .23-.184.814.814 0 0 1 .135-.062Zm-53.18 37.111c-.725-3.046-3.676-4.446-6.046-3.497-2.275.922-3.084 4.268-1.297 6.779 1.09 1.532 2.961 2.295 4.475 1.815.245-.085.47-.18.695-.292 1.608-.818 2.727-2.52 2.172-4.805Z" clip-rule="evenodd" mask="url(#a)"/><path stroke="#fff" stroke-width="1.88" d="M83.327 86.372c-.216 1.382.17 3.037.433 4.24.235 1.1.658 2.154 1.062 3.207.433 1.11 1.016 1.767 1.627 2.726 3.422 5.444 9.195 8.491 15.476 8.933 5.096.357 13.493-.555 17.207-4.683 2.933-3.262-8.716-4.917-10.785-5.557-5.726-1.748-10.85-4.165-15.354-8.16-2.228-1.985-5.435-4.758-8.49-2.718-.696.46-1.044 1.184-1.176 2.012Zm-62.516 1.74c-1.947.874-3.893 3.318-5.002 4.268-4.523 3.874-10.522 5.463-14.95 9.261-2.37 2.041.724 3.479 2.548 4.09 8.311 2.802 17.986-1.532 20.563-10.135.526-1.759 1.279-5.952-.376-7.278-.865-.686-1.824-.64-2.783-.207Z" mask="url(#a)"/></svg>